<?xml version="1.0" standalone="no"?>
<!DOCTYPE svg PUBLIC "-//W3C//DTD SVG 20010904//EN"
 "http://www.w3.org/TR/2001/REC-SVG-20010904/DTD/svg10.dtd">
<svg version="1.0" xmlns="http://www.w3.org/2000/svg"
 width="512.000000pt" height="512.000000pt" viewBox="0 0 512.000000 512.000000"
 preserveAspectRatio="xMidYMid meet">
<metadata>
Created by potrace 1.11, written by Peter Selinger 2001-2013
</metadata>
<g transform="translate(0.000000,512.000000) scale(0.100000,-0.100000)"
fill="#000000" stroke="none">
<path d="M0 2560 l0 -2560 2560 0 2560 0 0 2560 0 2560 -2560 0 -2560 0 0
-2560z m1602 1902 c2 -9 107 -183 233 -385 127 -202 239 -382 250 -400 38 -64
169 -272 204 -327 20 -30 41 -62 46 -72 6 -10 42 -68 81 -130 39 -62 123 -196
186 -298 63 -102 161 -257 216 -345 55 -88 145 -231 199 -318 54 -87 105 -169
113 -182 49 -77 373 -596 533 -854 57 -91 108 -166 115 -169 9 -3 12 369 12
1747 l0 1751 195 0 195 0 0 -1890 0 -1890 -323 0 c-296 0 -325 2 -339 18 -8 9
-46 68 -84 130 -38 62 -80 130 -94 153 -63 101 -538 860 -569 909 -19 30 -42
67 -51 81 -8 14 -51 83 -95 152 -44 70 -86 137 -93 150 -7 12 -25 41 -40 65
-58 92 -598 953 -612 976 -8 14 -53 86 -100 161 -47 75 -92 147 -100 161 -94
154 -328 523 -340 537 -13 16 -16 -170 -20 -1735 l-5 -1753 -187 -3 -188 -2 0
1890 0 1890 329 0 c308 0 330 -1 333 -18z"/>
</g>
</svg>
